<svg id="icon-wordmark_blanco" data-name="icon-wordmark blanco" xmlns="http://www.w3.org/2000/svg" viewBox="0 0 1195.2 842.4"><defs><style>.cls-1{fill:#fff;}</style></defs><path class="cls-1" d="M479.66,479.35a21.39,21.39,0,0,0,13.82,1.38C501,479.07,503,475,503,475l7.41,8.13c-8.14,10-22.95,9-22.95,9-26.59-2.43-28.48-23.86-28.48-23.86-1.66-18.62,8.73-26.4,17.26-29.65a30.2,30.2,0,0,1,21.9.1c18.88,7.56,15.46,29.55,15.46,29.55h-42C472.09,474.3,475.94,477.57,479.66,479.35ZM471,460.21h30.51s-.38-12.78-15.22-13.07C486.29,447.14,473.18,447.14,471,460.21Z"/><path class="cls-1" d="M629.79,468.35c-1.66-18.62,8.73-26.4,17.26-29.65a30.2,30.2,0,0,1,21.9.1c18.87,7.56,15.46,29.55,15.46,29.55h-42c.51,5.95,4.36,9.22,8.08,11a21.39,21.39,0,0,0,13.82,1.38c7.5-1.66,9.47-5.7,9.47-5.7l7.41,8.13c-8.13,10-23,9-23,9-26.58-2.43-28.47-23.86-28.47-23.86m12.06-8.14h30.5s-.37-12.78-15.22-13.07C657.13,447.14,644,447.14,641.85,460.21Z"/><path class="cls-1" d="M545.34,491.07h13V460.61a11.86,11.86,0,0,1,2.32-7.17c2.12-2.83,6-5.88,13-5.84,0,0,12.27-.72,12.48,11.4v32.07h12v-35a16.16,16.16,0,0,0-.84-5.25c-1.77-5.17-7.22-13.7-23.91-13.4,0,0-10.61-.43-16.14,7.17l.15-7.18h-12Z"/><path class="cls-1" d="M748.05,437.71c-1.1-.07-2.25-.09-3.46-.07,0,0-10.62-.43-16.14,7.17l.14-7.18H716.54V491.3h13V460.84a11.9,11.9,0,0,1,2.33-7.17c2.12-2.82,6-5.88,12.95-5.84a14.47,14.47,0,0,1,3.36.29Z"/><path class="cls-1" d="M795.93,415.68l.14,24.87c4.73-5.95,15-5.95,15-5.95,28-.55,27.31,28.26,27.31,28.26.13,28.26-26.49,28.35-26.49,28.35-13,.07-16.08-5.91-16.08-5.91v4.9H777.07V415.68Zm1.29,53.47c3.25,7.69,10.2,7.16,10.2,7.16,7.62-.16,10.27-6.21,11.19-10.08a15,15,0,0,0,.2-6.07c-1.22-6.59-4.8-9.23-7.83-10.19a14.74,14.74,0,0,0-6.2-.23c-4.39,1-6.66,4.74-7.83,8A15.76,15.76,0,0,0,797.22,469.15Z"/><path class="cls-1" d="M863.17,462.42c0-18.95,14.59-28,30.78-28s31.14,9.78,31.14,28.4c0,16.18-14.36,29.39-31.63,28.39C877.3,490.28,863.17,482.58,863.17,462.42Zm42,.44c.12-7.89-4.51-11.09-7.82-12.37a10.75,10.75,0,0,0-6.49-.43c-8.65,2.19-8.41,12.78-8.41,12.78.06,7.6,4.08,10.85,7.23,12.22a10.45,10.45,0,0,0,7.68.27C905.43,472.54,905.21,462.86,905.21,462.86Z"/><path class="cls-1" d="M949.53,462.42c0-18.95,14.6-28,30.78-28s31.14,9.77,31.14,28.39c0,16.19-14.36,29.4-31.63,28.4C963.67,490.28,949.53,482.58,949.53,462.42Zm42.05.44c.12-7.89-4.51-11.09-7.83-12.37a10.65,10.65,0,0,0-6.48-.43c-8.65,2.18-8.42,12.78-8.42,12.78.06,7.6,4.08,10.85,7.23,12.22a10.45,10.45,0,0,0,7.68.27C991.79,472.53,991.58,462.86,991.58,462.86Z"/><polygon class="cls-1" points="1040.42 415.68 1040.42 490.12 1060.26 490.12 1060.26 477.18 1065.7 471.74 1080.4 490.12 1103.01 490.12 1079.08 459.25 1102.01 435.59 1078.34 435.59 1060.26 453.52 1060.12 415.68 1040.42 415.68"/><path class="cls-1" d="M290.73,523.86c1.71-2.05,2.2-3.18-.32-6.24-10-12.09-24.48-23.09-34.92-35.24a11.23,11.23,0,0,1-1.82-2.85c-4.5-10.44,9.28-22.65,20.61-12,12.31,11.56,22.59,27.3,39.53,32.32,43.93,13,77.34-37.53,52.05-74.45-16.08-23.46-49.95-27.65-71.37-8.93C283,426.48,271,439.68,260,450.55c-18.26,18-35.92,36.77-54.31,54.64-13.24,12.87-25.29,21.72-44.21,24.61C103.88,538.6,60.79,481,80.08,427.36c15.09-41.95,60.45-60.83,99.28-47.44A77.49,77.49,0,0,1,209,398.82l31.08,31.46c19.33-17.13,35-41.38,60.1-50.36a80.09,80.09,0,0,1,30.56-4.44c5.68.24,7.38,2.39,12.72-1.91,3-2.45,16.54-15.91,17.92-18.76,2-4.08.08-4.8-.88-8.64-5.87-23.43,14.88-43.85,38.29-37.4,7.22,2,13.83,7.47,17.89,14.23a28.74,28.74,0,0,1,4,14.83h0a30.39,30.39,0,0,1-1,7.77c-.25,1-.53,1.94-.83,2.83a31,31,0,0,1-32,20.55c-5.1-.47-8.48-3.89-13-.37a101.83,101.83,0,0,0-9,9.1,16.6,16.6,0,0,0-2.34,4.14c-.45,3.34,6.84,7,9.37,9a79.67,79.67,0,0,1,24.42,92.9C385,512,355.56,531.8,324.7,529.94c-5.9-.35-9.69-2.85-15.08,1.29-3.89,3-14.64,13.78-17.71,17.67-3.65,4.62-.77,5.92.66,10.56a29,29,0,0,1-3.64,25,30.35,30.35,0,0,1-23.79,13.24,29.16,29.16,0,0,1-4.95,0c-9.71-1.24-19.59-10.17-22.89-19.19-6.77-18.52,6.88-39.89,27-39.92,3.49,0,7.93,2.19,11.14.39Zm96.68-200c-3.35.53-7.18,3.27-9.14,6-9.66,13.36,7.55,30.42,20.47,20C410.68,340.25,402.08,321.53,387.41,323.84ZM215.05,446.06c-9.15-9.74-28.41-31.31-39.6-36.56-37.86-17.76-79.52,15.74-69.41,56.43,7.94,31.92,45.63,47.23,71.71,25.4L219,450.57l.2-.87C217.43,449.12,216.28,447.37,215.05,446.06ZM255.16,559c-11.81,12.16,6.72,30.89,18.84,18.61S267.44,546.34,255.16,559Z"/></svg>