<svg id="icon-wordmark_negro" data-name="icon-wordmark negro" xmlns="http://www.w3.org/2000/svg" viewBox="0 0 1195.2 842.4"><path d="M483.75,416.77a21.39,21.39,0,0,0,13.82,1.38c7.5-1.66,9.48-5.7,9.48-5.7l7.4,8.13c-8.13,10-23,9.05-23,9.05C464.92,427.2,463,405.77,463,405.77c-1.66-18.62,8.73-26.41,17.26-29.65a30.2,30.2,0,0,1,21.9.1c18.87,7.56,15.46,29.55,15.46,29.55h-42C476.18,411.72,480,415,483.75,416.77Zm-8.66-19.14h30.5s-.37-12.78-15.22-13.07C490.37,384.56,477.27,384.56,475.09,397.63Z"/><path d="M633.88,405.77c-1.66-18.62,8.72-26.41,17.26-29.65a30.2,30.2,0,0,1,21.9.1c18.87,7.56,15.46,29.55,15.46,29.55h-42c.51,6,4.35,9.22,8.08,11a21.35,21.35,0,0,0,13.81,1.38c7.51-1.66,9.48-5.7,9.48-5.7l7.41,8.13c-8.13,10-22.95,9.05-22.95,9.05-26.58-2.43-28.47-23.86-28.47-23.86m12.06-8.14h30.5s-.37-12.78-15.22-13.07C661.22,384.56,648.11,384.56,645.94,397.63Z"/><path d="M549.42,428.49h13V398a11.86,11.86,0,0,1,2.32-7.16c2.12-2.83,6-5.88,13-5.85,0,0,12.26-.71,12.48,11.41v32.07h12.05v-35a16.27,16.27,0,0,0-.84-5.26c-1.77-5.16-7.22-13.69-23.91-13.39,0,0-10.62-.43-16.14,7.17l.14-7.18H549.42Z"/><path d="M752.14,375.13c-1.1-.07-2.25-.09-3.46-.07,0,0-10.62-.43-16.14,7.17l.14-7.18h-12v53.67h13V398.26a11.93,11.93,0,0,1,2.32-7.17c2.13-2.82,6-5.88,13-5.84a14.47,14.47,0,0,1,3.36.29Z"/><path d="M800,353.1l.13,24.86c4.74-5.95,15-5.95,15-5.95,28-.54,27.32,28.27,27.32,28.27.13,28.26-26.5,28.35-26.5,28.35-13.05.07-16.08-5.91-16.08-5.91v4.9H781.16V353.1Zm1.29,53.47c3.25,7.69,10.2,7.16,10.2,7.16,7.62-.16,10.27-6.21,11.19-10.08a14.79,14.79,0,0,0,.19-6.07c-1.21-6.59-4.79-9.23-7.83-10.19a14.68,14.68,0,0,0-6.19-.23c-4.39,1-6.66,4.74-7.83,8A15.71,15.71,0,0,0,801.31,406.57Z"/><path d="M867.26,399.84c0-18.95,14.59-28,30.78-28s31.14,9.78,31.14,28.4c0,16.18-14.37,29.39-31.63,28.39C881.39,427.7,867.26,420,867.26,399.84Zm42,.44c.12-7.89-4.51-11.09-7.82-12.37a10.75,10.75,0,0,0-6.49-.43c-8.65,2.18-8.41,12.78-8.41,12.78,0,7.6,4.07,10.85,7.22,12.22a10.48,10.48,0,0,0,7.69.27C909.52,410,909.3,400.28,909.3,400.28Z"/><path d="M953.62,399.84c0-18.95,14.59-28,30.78-28s31.14,9.77,31.14,28.39c0,16.19-14.36,29.4-31.63,28.4C967.75,427.7,953.62,420,953.62,399.84Zm42,.44c.12-7.89-4.51-11.09-7.82-12.37a10.73,10.73,0,0,0-6.48-.44c-8.66,2.19-8.42,12.79-8.42,12.79.06,7.6,4.08,10.85,7.23,12.22a10.45,10.45,0,0,0,7.68.27C995.88,410,995.66,400.28,995.66,400.28Z"/><polygon points="1044.51 353.1 1044.51 427.54 1064.35 427.54 1064.35 414.6 1069.79 409.16 1084.49 427.54 1107.1 427.54 1083.16 396.67 1106.1 373 1082.43 373 1064.35 390.94 1064.2 353.1 1044.51 353.1"/><path d="M294.81,461.28c1.71-2,2.21-3.18-.31-6.24C284.52,443,270,432,259.58,419.79a11,11,0,0,1-1.82-2.84c-4.5-10.44,9.27-22.65,20.61-12,12.31,11.56,22.58,27.3,39.53,32.31,43.92,13,77.34-37.52,52-74.44-16.07-23.46-49.95-27.65-71.36-8.93-11.45,10-23.52,23.21-34.53,34.08-18.27,18-35.92,36.77-54.31,54.64-13.24,12.87-25.29,21.72-44.21,24.61C108,476,64.88,418.43,84.17,364.78c15.09-42,60.45-60.83,99.27-47.44a77.34,77.34,0,0,1,29.68,18.9l31.09,31.46c19.32-17.13,35-41.38,60.1-50.36a80,80,0,0,1,30.55-4.44c5.69.24,7.39,2.39,12.72-1.91,3-2.45,16.55-15.91,17.93-18.76,2-4.08.07-4.8-.89-8.64-5.86-23.43,14.88-43.85,38.3-37.41,7.22,2,13.83,7.48,17.89,14.23a28.78,28.78,0,0,1,4,14.84h0a30.39,30.39,0,0,1-1,7.77c-.26,1-.53,1.94-.84,2.83a30.93,30.93,0,0,1-32,20.55c-5.09-.47-8.47-3.9-13-.37a101.83,101.83,0,0,0-9,9.1,16.29,16.29,0,0,0-2.34,4.14c-.45,3.34,6.84,7,9.37,9a79.67,79.67,0,0,1,24.42,92.9c-11.39,28.25-40.79,48-71.65,46.18-5.91-.35-9.69-2.85-15.08,1.29-3.89,3-14.64,13.78-17.71,17.67-3.65,4.62-.77,5.92.66,10.56a29,29,0,0,1-3.65,25,30.33,30.33,0,0,1-23.78,13.24,29.16,29.16,0,0,1-5,0c-9.72-1.24-19.59-10.17-22.89-19.19-6.77-18.52,6.88-39.89,27-39.92,3.49,0,7.93,2.19,11.14.39Zm96.68-200c-3.35.53-7.17,3.27-9.13,6-9.66,13.36,7.54,30.42,20.47,20C414.77,277.67,406.17,259,391.49,261.26ZM219.14,383.48c-9.15-9.74-28.41-31.32-39.6-36.56-37.86-17.76-79.53,15.74-69.41,56.42,7.94,31.93,45.63,47.24,71.71,25.41L223.07,388l.2-.87C221.52,386.53,220.36,384.79,219.14,383.48ZM259.25,496.4C247.44,508.56,266,527.29,278.08,515S271.53,483.76,259.25,496.4Z"/></svg>