<svg id="icon_color" data-name="icon color" xmlns="http://www.w3.org/2000/svg" xmlns:xlink="http://www.w3.org/1999/xlink" viewBox="0 0 1195.2 842.4"><defs><style>.cls-1{fill:url(#linear-gradient);}</style><linearGradient id="linear-gradient" x1="215.4" y1="391.57" x2="1014.5" y2="391.57" gradientUnits="userSpaceOnUse"><stop offset="0.16" stop-color="#ffca06"/><stop offset="0.43" stop-color="#fdb80d"/><stop offset="0.9" stop-color="#f78f1e"/></linearGradient></defs><path class="cls-1" d="M741.61,556.32c4-4.73,5.11-7.36-.73-14.43-23.08-28-56.64-53.44-80.8-81.56a25.6,25.6,0,0,1-4.21-6.58c-10.41-24.16,21.46-52.41,47.69-27.77C732,452.73,755.82,489.15,795,500.76c101.64,30.09,179-86.83,120.43-172.26-37.2-54.29-115.58-64-165.14-20.67-26.49,23.15-54.41,53.7-79.9,78.85-42.26,41.7-83.12,85.08-125.66,126.44-30.64,29.78-58.52,50.26-102.32,57C309.27,590.42,209.56,457.17,254.2,333,289.11,236,394.07,192.26,483.9,223.27A178.81,178.81,0,0,1,552.58,267l71.93,72.79c44.72-39.63,80.91-95.74,139.08-116.52,22.91-8.18,46.35-11.28,70.7-10.27,13.15.55,17.09,5.51,29.43-4.44,7-5.66,38.28-36.81,41.47-43.39,4.59-9.45.18-11.12-2-20-13.57-54.23,34.43-101.48,88.61-86.56,16.7,4.59,32,17.29,41.4,32.92a66.6,66.6,0,0,1,9.32,34.33h0a70.46,70.46,0,0,1-2.31,18c-.59,2.22-1.23,4.48-1.94,6.54-10.56,30.83-41.5,50.52-74,47.54-11.78-1.08-19.62-9-30.11-.84-3.88,3-17.81,17.11-20.84,21-1.43,1.86-5.15,7.61-5.42,9.6-1.05,7.72,15.81,16.15,21.68,20.84,64.67,51.66,87.76,137.42,56.5,215-26.35,65.38-94.38,111.17-165.8,106.87-13.66-.82-22.42-6.61-34.89,3-9,6.92-33.87,31.89-41,40.89-8.45,10.68-1.78,13.7,1.54,24.43a67.11,67.11,0,0,1-8.45,57.75c-12.31,18.41-32.92,29.56-55,30.65a68.35,68.35,0,0,1-11.46,0c-22.48-2.87-45.33-23.53-53-44.4-15.66-42.85,15.93-92.3,62.49-92.39,8.09,0,18.37,5.07,25.79.91ZM965.32,93.5c-7.75,1.22-16.59,7.55-21.13,13.81-22.36,30.9,17.46,70.37,47.37,46.34C1019.18,131.47,999.29,88.14,965.32,93.5ZM566.5,376.31c-21.17-22.55-65.73-72.47-91.62-84.61-87.62-41.08-184,36.43-160.61,130.57C332.64,496.14,419.84,531.58,480.2,481l95.39-94.31.47-2C572,383.37,569.34,379.33,566.5,376.31Zm92.82,261.28c-27.33,28.13,15.53,71.49,43.58,43C731.15,652,687.73,608.34,659.32,637.59Z"/></svg>