<svg id="icon_negro" data-name="icon negro" xmlns="http://www.w3.org/2000/svg" viewBox="0 0 1195.2 842.4"><path d="M727.26,556.74c4-4.73,5.11-7.35-.73-14.43-23.09-28-56.64-53.44-80.81-81.56a26.15,26.15,0,0,1-4.21-6.58C631.1,430,663,401.76,689.2,426.4c28.48,26.76,52.27,63.17,91.47,74.78,101.64,30.09,179-86.82,120.43-172.26-37.19-54.29-115.58-64-165.13-20.67-26.5,23.15-54.42,53.71-79.9,78.85-42.27,41.7-83.13,85.09-125.67,126.44-30.64,29.78-58.52,50.26-102.31,57-133.18,20.35-232.88-112.9-188.25-237,34.92-97.09,139.88-140.77,229.71-109.77a179,179,0,0,1,68.68,43.72l71.92,72.79c44.73-39.63,80.91-95.74,139.08-116.51,22.92-8.19,46.36-11.29,70.7-10.28,13.16.55,17.09,5.51,29.44-4.44,7-5.66,38.27-36.8,41.47-43.39,4.58-9.45.18-11.11-2-20C875.23,91.36,923.22,44.12,977.41,59c16.7,4.59,32,17.29,41.4,32.92a66.61,66.61,0,0,1,9.32,34.34h0a70,70,0,0,1-2.32,18c-.59,2.22-1.22,4.48-1.93,6.54-10.57,30.83-41.5,50.52-74,47.54-11.79-1.08-19.62-9-30.11-.84-3.89,3-17.82,17.11-20.85,21-1.43,1.86-5.14,7.61-5.41,9.6-1,7.72,15.81,16.15,21.68,20.84,64.67,51.66,87.75,137.43,56.5,215-26.36,65.39-94.38,111.17-165.8,106.87-13.66-.82-22.42-6.61-34.89,3-9,6.92-33.87,31.89-41,40.89-8.44,10.68-1.77,13.7,1.55,24.43a67.14,67.14,0,0,1-8.45,57.75c-12.31,18.41-32.92,29.56-55,30.65a68.35,68.35,0,0,1-11.46,0c-22.47-2.87-45.32-23.53-53-44.4-15.67-42.85,15.92-92.3,62.49-92.38,8.08,0,18.36,5.07,25.79.9ZM951,93.92c-7.75,1.22-16.6,7.55-21.13,13.82-22.36,30.9,17.45,70.37,47.37,46.34C1004.82,131.89,984.93,88.56,951,93.92ZM552.14,376.73c-21.16-22.55-65.72-72.47-91.61-84.61-87.62-41.08-184,36.43-160.62,130.57C318.29,496.56,405.48,532,465.85,481.46l95.39-94.31.47-2C557.65,383.79,555,379.75,552.14,376.73ZM645,638c-27.32,28.13,15.54,71.49,43.58,43C716.8,652.42,673.37,608.76,645,638Z"/></svg>